<svg width="668" height="620" viewBox="0 0 668 620" fill="none" xmlns="http://www.w3.org/2000/svg">
<g clip-path="url(#clip0_4_29)">
<rect width="668" height="620" fill="white"/>
<path d="M384.949 30.1755C390.679 45.1678 378.537 49.4144 364.629 57.4501C350.721 65.4858 340.313 74.2676 334.583 59.2753C328.853 44.283 324.204 14.5261 343.88 3.15819C364.233 -8.6013 379.219 15.1832 384.949 30.1755Z" fill="#2F2E41"/>
<path d="M356.573 59.6594C366.913 59.6594 375.296 49.3525 375.296 36.6383C375.296 23.9241 366.913 13.6172 356.573 13.6172C346.232 13.6172 337.849 23.9241 337.849 36.6383C337.849 49.3525 346.232 59.6594 356.573 59.6594Z" fill="#FFB8B8"/>
<path d="M449.332 138.732C448.684 137.692 448.036 136.67 447.38 135.677C446.534 134.383 445.683 133.13 444.826 131.918C435.122 118.149 424.8 109.479 413.434 108.551H413.419L413.251 108.532L390.603 135.677L382.903 144.9L383.071 145.406L387.225 158.125H460.019C456.739 151.432 453.172 144.959 449.332 138.732Z" fill="#2F2E41"/>
<path d="M336.212 45.9066L342.915 42.0341L341.981 30.146L346.463 39.9842L349.666 38.1333L349.122 31.1986L351.736 36.9374L375.539 23.1848C373.303 17.3352 369.269 12.8171 364.324 10.6244C359.38 8.43181 353.929 8.74425 349.171 11.493L345.721 13.4862C340.964 16.235 337.289 21.1949 335.506 27.2749C333.723 33.3549 333.977 40.0569 336.212 45.9066Z" fill="#2F2E41"/>
<path d="M491.336 463.777H100.388C97.0533 463.773 93.8562 462.142 91.4981 459.242C89.14 456.343 87.8136 452.412 87.8098 448.312V159.479C87.8126 156.475 88.7843 153.595 90.5118 151.471C92.2393 149.346 94.5816 148.152 97.0247 148.148H494.539C497.025 148.152 499.408 149.367 501.165 151.528C502.923 153.689 503.911 156.619 503.914 159.674V448.312C503.91 452.412 502.584 456.343 500.226 459.242C497.867 462.142 494.67 463.773 491.336 463.777Z" fill="#F2F2F2"/>
<path d="M112.585 448.312H479.138C482.373 448.312 485.476 446.732 487.763 443.919C490.05 441.107 491.336 437.292 491.336 433.315V188.166C491.336 184.188 490.05 180.374 487.763 177.561C485.476 174.749 482.373 173.169 479.138 173.169H112.585C109.35 173.169 106.248 174.749 103.961 177.561C101.673 180.374 100.388 184.188 100.388 188.166V433.315C100.388 437.292 101.673 441.107 103.961 443.919C106.248 446.732 109.35 448.312 112.585 448.312Z" fill="white"/>
<path d="M503.739 158.594H87.6333V150.72C87.6382 146.606 88.97 142.663 91.3367 139.755C93.7033 136.847 96.9115 135.211 100.257 135.208H491.115C494.461 135.211 497.669 136.847 500.035 139.755C502.402 142.663 503.734 146.606 503.739 150.72V158.594Z" fill="#525252"/>
<path d="M110.576 150.939C112.379 150.939 113.841 149.142 113.841 146.924C113.841 144.707 112.379 142.909 110.576 142.909C108.772 142.909 107.31 144.707 107.31 146.924C107.31 149.142 108.772 150.939 110.576 150.939Z" fill="white"/>
<path d="M122.97 150.939C124.773 150.939 126.235 149.142 126.235 146.924C126.235 144.707 124.773 142.909 122.97 142.909C121.167 142.909 119.705 144.707 119.705 146.924C119.705 149.142 121.167 150.939 122.97 150.939Z" fill="white"/>
<path d="M135.364 150.939C137.168 150.939 138.63 149.142 138.63 146.924C138.63 144.707 137.168 142.909 135.364 142.909C133.561 142.909 132.099 144.707 132.099 146.924C132.099 149.142 133.561 150.939 135.364 150.939Z" fill="white"/>
<path d="M307.299 395.147H274.519C272.599 395.144 270.759 394.205 269.401 392.536C268.043 390.867 267.28 388.604 267.277 386.243V345.939C267.28 343.578 268.043 341.315 269.401 339.645C270.759 337.976 272.599 337.037 274.519 337.034H307.299C309.219 337.037 311.06 337.976 312.418 339.645C313.775 341.315 314.539 343.578 314.541 345.939V386.243C314.539 388.604 313.775 390.867 312.418 392.536C311.06 394.205 309.219 395.144 307.299 395.147ZM274.519 338.909C273.004 338.911 271.55 339.652 270.478 340.97C269.407 342.288 268.804 344.075 268.802 345.939V386.243C268.804 388.107 269.407 389.893 270.478 391.211C271.55 392.529 273.004 393.27 274.519 393.273H307.299C308.815 393.27 310.268 392.529 311.34 391.211C312.412 389.893 313.015 388.107 313.017 386.243V345.939C313.015 344.075 312.412 342.288 311.34 340.97C310.268 339.652 308.815 338.911 307.299 338.909H274.519Z" fill="#CCCCCC"/>
<path d="M300.82 383.899H280.999C280.393 383.899 279.812 383.602 279.383 383.075C278.954 382.548 278.713 381.833 278.712 381.088V351.094C278.713 350.348 278.954 349.634 279.383 349.106C279.812 348.579 280.393 348.283 280.999 348.282H295.361C295.882 348.282 296.387 348.501 296.794 348.902L302.252 354.295C302.519 354.558 302.735 354.892 302.883 355.271C303.031 355.651 303.107 356.066 303.107 356.487V381.088C303.106 381.833 302.865 382.548 302.436 383.075C302.007 383.602 301.426 383.899 300.82 383.899ZM280.999 350.157C280.797 350.157 280.603 350.256 280.46 350.431C280.318 350.607 280.237 350.845 280.237 351.094V381.088C280.237 381.336 280.318 381.574 280.46 381.75C280.603 381.926 280.797 382.025 280.999 382.025H300.82C301.022 382.025 301.215 381.926 301.358 381.75C301.501 381.574 301.582 381.336 301.582 381.088V356.487C301.582 356.347 301.557 356.208 301.507 356.082C301.458 355.955 301.386 355.844 301.297 355.757L295.838 350.363C295.703 350.229 295.534 350.157 295.361 350.157H280.999Z" fill="#CCCCCC"/>
<path d="M297.008 361.404H284.811C284.609 361.404 284.415 361.305 284.272 361.13C284.129 360.954 284.048 360.715 284.048 360.467C284.048 360.218 284.129 359.98 284.272 359.804C284.415 359.628 284.609 359.53 284.811 359.53H297.008C297.21 359.53 297.404 359.628 297.547 359.804C297.69 359.98 297.77 360.218 297.77 360.467C297.77 360.715 297.69 360.954 297.547 361.13C297.404 361.305 297.21 361.404 297.008 361.404Z" fill="#CCCCCC"/>
<path d="M297.008 367.028H284.811C284.609 367.028 284.415 366.929 284.272 366.753C284.129 366.578 284.048 366.339 284.048 366.091C284.048 365.842 284.129 365.604 284.272 365.428C284.415 365.252 284.609 365.153 284.811 365.153H297.008C297.21 365.153 297.404 365.252 297.547 365.428C297.69 365.604 297.77 365.842 297.77 366.091C297.77 366.339 297.69 366.578 297.547 366.753C297.404 366.929 297.21 367.028 297.008 367.028Z" fill="#CCCCCC"/>
<path d="M297.008 372.652H284.811C284.609 372.652 284.415 372.553 284.272 372.377C284.129 372.202 284.048 371.963 284.048 371.715C284.048 371.466 284.129 371.228 284.272 371.052C284.415 370.876 284.609 370.777 284.811 370.777H297.008C297.21 370.777 297.404 370.876 297.547 371.052C297.69 371.228 297.77 371.466 297.77 371.715C297.77 371.963 297.69 372.202 297.547 372.377C297.404 372.553 297.21 372.652 297.008 372.652Z" fill="#CCCCCC"/>
<path d="M385.056 395.147H352.276C350.356 395.144 348.515 394.205 347.158 392.536C345.8 390.867 345.036 388.604 345.034 386.243V345.939C345.036 343.578 345.8 341.315 347.158 339.645C348.515 337.976 350.356 337.037 352.276 337.034H385.056C386.976 337.037 388.817 337.976 390.174 339.645C391.532 341.315 392.296 343.578 392.298 345.939V386.243C392.296 388.604 391.532 390.867 390.174 392.536C388.817 394.205 386.976 395.144 385.056 395.147ZM352.276 338.909C350.76 338.911 349.307 339.652 348.235 340.97C347.163 342.288 346.561 344.075 346.559 345.939V386.243C346.561 388.107 347.163 389.893 348.235 391.211C349.307 392.529 350.76 393.27 352.276 393.273H385.056C386.572 393.27 388.025 392.529 389.097 391.211C390.169 389.893 390.772 388.107 390.773 386.243V345.939C390.772 344.075 390.169 342.288 389.097 340.97C388.025 339.652 386.572 338.911 385.056 338.909H352.276Z" fill="#CCCCCC"/>
<path d="M379.339 376.401H357.994C357.387 376.4 356.806 376.104 356.377 375.577C355.948 375.049 355.707 374.335 355.707 373.589V358.592C355.707 357.847 355.948 357.132 356.377 356.605C356.806 356.078 357.387 355.781 357.994 355.78H379.339C379.945 355.781 380.526 356.078 380.955 356.605C381.384 357.132 381.625 357.847 381.626 358.592V373.589C381.625 374.335 381.384 375.049 380.955 375.577C380.526 376.104 379.945 376.4 379.339 376.401ZM357.994 357.655C357.791 357.655 357.598 357.754 357.455 357.93C357.312 358.105 357.231 358.344 357.231 358.592V373.589C357.231 373.838 357.312 374.076 357.455 374.252C357.598 374.427 357.791 374.526 357.994 374.526H379.339C379.541 374.526 379.734 374.427 379.877 374.252C380.02 374.076 380.101 373.838 380.101 373.589V358.592C380.101 358.344 380.02 358.105 379.877 357.93C379.734 357.754 379.541 357.655 379.339 357.655H357.994Z" fill="#CCCCCC"/>
<path d="M368.666 368.564C368.238 368.564 367.818 368.417 367.454 368.139L356.065 359.387C355.894 359.255 355.772 359.045 355.727 358.803C355.682 358.561 355.717 358.307 355.824 358.096C355.931 357.886 356.101 357.736 356.298 357.68C356.495 357.624 356.702 357.666 356.873 357.797L368.263 366.549C368.384 366.642 368.524 366.691 368.666 366.691C368.809 366.691 368.949 366.642 369.07 366.549L380.459 357.797C380.63 357.666 380.837 357.624 381.034 357.68C381.231 357.736 381.401 357.886 381.508 358.096C381.616 358.307 381.65 358.561 381.605 358.803C381.56 359.045 381.439 359.255 381.267 359.387L369.879 368.139C369.515 368.417 369.095 368.564 368.666 368.564Z" fill="#CCCCCC"/>
<path d="M229.543 395.147H196.763C194.843 395.144 193.002 394.205 191.644 392.536C190.287 390.867 189.523 388.604 189.521 386.243V345.939C189.523 343.578 190.287 341.315 191.644 339.645C193.002 337.976 194.843 337.037 196.763 337.034H229.543C231.463 337.037 233.303 337.976 234.661 339.645C236.019 341.315 236.782 343.578 236.785 345.939V386.243C236.782 388.604 236.019 390.867 234.661 392.536C233.303 394.205 231.463 395.144 229.543 395.147ZM196.763 338.909C195.247 338.911 193.794 339.652 192.722 340.97C191.65 342.288 191.047 344.075 191.045 345.939V386.243C191.047 388.107 191.65 389.893 192.722 391.211C193.794 392.529 195.247 393.27 196.763 393.273H229.543C231.058 393.27 232.512 392.529 233.584 391.211C234.655 389.893 235.258 388.107 235.26 386.243V345.939C235.258 344.075 234.655 342.288 233.584 340.97C232.512 339.652 231.058 338.911 229.543 338.909H196.763Z" fill="#CCCCCC"/>
<path d="M223.825 376.401H202.48C201.874 376.4 201.293 376.104 200.864 375.577C200.435 375.049 200.194 374.335 200.193 373.589V358.592C200.194 357.847 200.435 357.132 200.864 356.605C201.293 356.078 201.874 355.781 202.48 355.78H223.825C224.431 355.781 225.013 356.078 225.442 356.605C225.87 357.132 226.111 357.847 226.112 358.592V373.589C226.111 374.335 225.87 375.049 225.442 375.577C225.013 376.104 224.431 376.4 223.825 376.401ZM202.48 357.655C202.278 357.655 202.084 357.754 201.941 357.93C201.798 358.105 201.718 358.344 201.718 358.592V373.589C201.718 373.838 201.798 374.076 201.941 374.252C202.084 374.427 202.278 374.526 202.48 374.526H223.825C224.027 374.526 224.221 374.427 224.364 374.252C224.507 374.076 224.587 373.838 224.587 373.589V358.592C224.587 358.344 224.507 358.105 224.364 357.93C224.221 357.754 224.027 357.655 223.825 357.655H202.48Z" fill="#CCCCCC"/>
<path d="M220.442 376.401H205.101C204.833 376.401 204.57 376.315 204.339 376.15C204.107 375.986 203.914 375.749 203.78 375.464C203.647 375.179 203.576 374.856 203.576 374.526C203.576 374.197 203.647 373.874 203.781 373.589L208.402 363.747C208.535 363.462 208.728 363.226 208.96 363.061C209.191 362.897 209.454 362.81 209.722 362.81C209.99 362.81 210.253 362.897 210.484 363.061C210.716 363.226 210.909 363.462 211.043 363.747L214.027 370.104L215.756 366.421C215.89 366.136 216.082 365.9 216.314 365.735C216.546 365.57 216.809 365.484 217.076 365.484C217.344 365.484 217.607 365.57 217.839 365.735C218.071 365.9 218.263 366.136 218.397 366.421L221.763 373.589C221.896 373.874 221.967 374.197 221.967 374.527C221.967 374.856 221.896 375.179 221.763 375.464C221.629 375.749 221.436 375.985 221.204 376.15C220.973 376.315 220.71 376.401 220.442 376.401H220.442ZM220.442 374.526L217.076 367.358L214.687 372.447C214.62 372.589 214.524 372.708 214.408 372.79C214.292 372.872 214.161 372.915 214.027 372.915C213.893 372.915 213.762 372.872 213.646 372.79C213.53 372.708 213.434 372.589 213.367 372.447L209.722 364.685L205.101 374.526H220.442Z" fill="#CCCCCC"/>
<path d="M221.538 363.279C222.38 363.279 223.063 362.439 223.063 361.404C223.063 360.369 222.38 359.529 221.538 359.529C220.696 359.529 220.013 360.369 220.013 361.404C220.013 362.439 220.696 363.279 221.538 363.279Z" fill="#CCCCCC"/>
<path d="M586.091 607.513L576.745 607.512L572.299 563.188L586.093 563.189L586.091 607.513Z" fill="#FFB8B8"/>
<path d="M588.475 618.651L558.34 618.65V618.181C558.34 616.287 558.643 614.412 559.232 612.662C559.822 610.913 560.686 609.323 561.775 607.984C562.864 606.644 564.157 605.582 565.58 604.857C567.003 604.133 568.529 603.76 570.069 603.76H570.07L588.475 603.761L588.475 618.651Z" fill="#2F2E41"/>
<path d="M624.207 607.513L614.861 607.512L610.415 563.188L624.209 563.189L624.207 607.513Z" fill="#FFB8B8"/>
<path d="M626.591 618.651L596.456 618.65V618.181C596.456 616.287 596.759 614.412 597.348 612.662C597.938 610.913 598.802 609.323 599.891 607.984C600.98 606.644 602.273 605.582 603.696 604.857C605.119 604.133 606.645 603.76 608.185 603.76H608.186L626.591 603.761L626.591 618.651Z" fill="#2F2E41"/>
<path d="M621.406 588.298L612.75 585.061C612.105 584.82 611.532 584.351 611.102 583.712C610.673 583.073 610.407 582.292 610.336 581.468L602.267 487.432C602.26 487.318 602.219 487.212 602.151 487.134C602.084 487.056 601.994 487.013 601.902 487.013C601.809 487.002 601.717 487.036 601.644 487.107C601.571 487.179 601.524 487.283 601.513 487.396L587.996 578.501C587.914 579.054 587.743 579.581 587.493 580.051C587.243 580.522 586.919 580.926 586.54 581.24C586.161 581.555 585.735 581.773 585.287 581.882C584.838 581.991 584.377 581.989 583.929 581.875L572.867 579.073C572.055 578.865 571.333 578.303 570.831 577.492C570.329 576.68 570.083 575.674 570.136 574.657L578.358 425.333L634.113 417.936L625.828 584.52C625.774 585.591 625.391 586.596 624.756 587.332C624.121 588.068 623.282 588.479 622.409 588.482C622.069 588.482 621.731 588.42 621.406 588.298Z" fill="#2F2E41"/>
<path d="M621.353 295.295C631.693 295.295 640.076 284.988 640.076 272.274C640.076 259.56 631.693 249.253 621.353 249.253C611.012 249.253 602.629 259.56 602.629 272.274C602.629 284.988 611.012 295.295 621.353 295.295Z" fill="#FFB8B8"/>
<path d="M578.272 426.21L590.361 332.619C591.004 327.643 592.502 322.892 594.754 318.683C597.006 314.474 599.962 310.903 603.424 308.207C606.886 305.512 610.775 303.753 614.833 303.05C618.89 302.346 623.024 302.713 626.957 304.126C633.834 306.571 639.723 312.082 643.473 319.58C647.223 327.078 648.564 336.026 647.236 344.676L634.588 428.257L578.272 426.21Z" fill="#525252"/>
<path d="M626.521 442.956C627.457 442.196 628.245 441.194 628.831 440.02C629.417 438.845 629.787 437.527 629.914 436.158C630.041 434.789 629.922 433.403 629.566 432.096C629.21 430.789 628.625 429.595 627.853 428.596L640.352 398.836L626.276 400.683L616.565 428.661C615.286 430.367 614.561 432.59 614.527 434.91C614.493 437.229 615.152 439.484 616.379 441.246C617.606 443.008 619.317 444.155 621.186 444.47C623.055 444.785 624.954 444.247 626.521 442.956V442.956Z" fill="#FFB8B8"/>
<path d="M629.198 423.347C628.506 423.227 627.861 422.85 627.348 422.268L622.566 416.835C622.049 416.245 621.692 415.475 621.544 414.627C621.395 413.78 621.461 412.897 621.734 412.098L631.291 384.243L629.935 329.205C630.13 327.435 630.607 325.731 631.338 324.188C632.069 322.645 633.04 321.295 634.196 320.214C635.352 319.133 636.669 318.343 638.074 317.888C639.478 317.434 640.941 317.324 642.38 317.565C643.819 317.807 645.205 318.394 646.459 319.295C647.713 320.195 648.81 321.39 649.688 322.812C650.566 324.234 651.208 325.855 651.576 327.582C651.944 329.309 652.032 331.109 651.835 332.877L654.153 367.475C654.858 377.976 652.436 388.434 647.339 396.904L632.434 421.679C632.148 422.155 631.783 422.552 631.363 422.843C630.943 423.134 630.478 423.314 629.999 423.369C629.732 423.401 629.463 423.393 629.198 423.347Z" fill="#525252"/>
<path d="M513.53 259.731C513.734 261.086 514.177 262.37 514.829 263.491C515.48 264.613 516.323 265.545 517.299 266.223C518.274 266.9 519.359 267.306 520.477 267.413C521.594 267.519 522.717 267.323 523.766 266.838L541.181 292.593L545.286 275.936L528.119 254.032C527.339 251.919 525.957 250.231 524.233 249.288C522.509 248.345 520.564 248.212 518.766 248.914C516.967 249.617 515.441 251.106 514.476 253.1C513.511 255.093 513.175 257.453 513.53 259.731Z" fill="#FFB8B8"/>
<path d="M527.173 270.407C527.532 269.671 528.066 269.087 528.702 268.733L534.636 265.437C535.279 265.082 535.995 264.978 536.688 265.14C537.38 265.302 538.016 265.721 538.508 266.342L555.644 288.024L597.393 307.947C598.643 308.858 599.734 310.062 600.604 311.491C601.475 312.92 602.108 314.547 602.467 316.277C602.826 318.007 602.905 319.807 602.698 321.575C602.49 323.342 602.002 325.042 601.26 326.577C600.518 328.112 599.538 329.453 598.374 330.521C597.211 331.59 595.888 332.367 594.48 332.806C593.072 333.246 591.608 333.34 590.171 333.083C588.734 332.827 587.352 332.224 586.104 331.31L559.288 320.446C551.149 317.15 544.26 310.331 539.904 301.257L527.16 274.722C526.915 274.212 526.761 273.644 526.706 273.055C526.652 272.466 526.698 271.87 526.844 271.305C526.924 270.991 527.035 270.689 527.173 270.407Z" fill="#525252"/>
<path opacity="0.1" d="M636.539 352.1L635.777 382.093L621.733 412.097L633.459 378.661L636.539 352.1Z" fill="black"/>
<path d="M619.207 276.6C618.031 276.788 616.84 276.445 615.854 275.635C614.869 274.824 614.156 273.601 613.848 272.193C613.551 270.572 612.901 269.082 611.968 267.881C611.034 266.68 609.852 265.814 608.549 265.375C605.115 264.41 600.917 266.398 598.4 263.199C597.861 262.468 597.471 261.591 597.263 260.639C597.054 259.687 597.032 258.687 597.199 257.723C597.663 254.613 599.472 252.265 601.44 250.386C605.583 246.451 610.596 244.147 615.822 243.777C618.527 243.681 621.234 243.847 623.919 244.273C626.729 244.491 629.509 245.115 632.2 246.133C635.266 247.556 637.992 249.906 640.124 252.967C642.256 256.027 643.726 259.699 644.399 263.643C645.014 267.599 644.919 271.672 644.122 275.578C643.324 279.485 641.843 283.13 639.781 286.26C637.313 290.039 634.13 293.018 630.511 294.938C629.649 295.439 628.661 295.5 627.762 295.11C625.507 294.007 625.876 290.574 626.904 288.284C628.004 285.833 629.696 283.46 628.812 280.477C628.368 279.094 627.517 277.968 626.428 277.322C624.187 275.917 621.68 276.249 619.271 276.591L619.207 276.6Z" fill="#2F2E41"/>
<path d="M507.274 289.601H275.528C272.193 289.596 268.996 287.965 266.638 285.066C264.28 282.167 262.954 278.236 262.95 274.135V213.211C262.954 209.11 264.28 205.179 266.638 202.28C268.996 199.381 272.193 197.75 275.528 197.745H507.274C510.608 197.75 513.805 199.381 516.163 202.28C518.522 205.179 519.848 209.11 519.852 213.211V274.135C519.848 278.236 518.522 282.167 516.163 285.066C513.805 287.965 510.608 289.596 507.274 289.601Z" fill="white"/>
<path d="M507.273 290.07H275.528C272.092 290.065 268.798 288.385 266.368 285.397C263.939 282.41 262.572 278.36 262.568 274.135V213.211C262.572 208.986 263.939 204.936 266.368 201.949C268.798 198.962 272.092 197.281 275.528 197.277H507.273C510.709 197.281 514.003 198.962 516.433 201.949C518.862 204.936 520.229 208.986 520.233 213.211V274.135C520.229 278.36 518.862 282.41 516.433 285.397C514.003 288.385 510.709 290.065 507.273 290.07ZM275.528 199.151C272.496 199.155 269.59 200.638 267.446 203.274C265.302 205.91 264.097 209.483 264.093 213.211V274.135C264.097 277.863 265.302 281.437 267.446 284.072C269.59 286.708 272.496 288.191 275.528 288.195H507.273C510.305 288.191 513.212 286.708 515.355 284.072C517.499 281.437 518.705 277.863 518.708 274.135V213.211C518.705 209.483 517.499 205.91 515.355 203.274C513.212 200.638 510.305 199.155 507.273 199.151H275.528Z" fill="#3F3D56"/>
<path d="M479.067 274.604H303.734C300.399 274.599 297.202 272.969 294.844 270.069C292.486 267.17 291.159 263.239 291.155 259.139V227.27C291.159 223.17 292.486 219.239 294.844 216.34C297.202 213.44 300.399 211.809 303.734 211.805H479.067C482.402 211.809 485.599 213.44 487.958 216.34C490.316 219.239 491.642 223.17 491.646 227.27V259.139C491.642 263.239 490.316 267.17 487.958 270.069C485.599 272.969 482.402 274.599 479.067 274.604Z" fill="#F2F2F2"/>
<path d="M341.465 257.427C349.772 257.427 356.507 249.147 356.507 238.932C356.507 228.718 349.772 220.437 341.465 220.437C333.157 220.437 326.422 228.718 326.422 238.932C326.422 249.147 333.157 257.427 341.465 257.427Z" fill="#CCCCCC"/>
<path d="M468.172 272.738L446.939 250.843L426.073 229.325C425.523 228.758 424.826 228.447 424.108 228.449C423.389 228.451 422.694 228.764 422.145 229.335L401.347 250.951L396.266 256.231L388.606 248.332L365.327 224.327C364.777 223.759 364.081 223.448 363.362 223.45C362.643 223.452 361.948 223.765 361.4 224.336L338.196 248.451L314.627 272.946C314.508 273.07 314.422 273.236 314.382 273.422C314.342 273.608 314.35 273.804 314.404 273.985C314.458 274.165 314.555 274.321 314.684 274.431C314.812 274.541 314.965 274.6 315.121 274.599L363.442 274.485L378.737 274.449L378.588 274.604L424.18 274.496L467.683 274.393C467.84 274.393 467.992 274.333 468.12 274.223C468.248 274.112 468.345 273.956 468.399 273.775C468.452 273.595 468.459 273.398 468.418 273.213C468.378 273.027 468.292 272.861 468.172 272.738Z" fill="#3F3D56"/>
<path d="M667.238 620H520.872C520.67 620 520.476 619.901 520.333 619.725C520.19 619.55 520.11 619.311 520.11 619.063C520.11 618.814 520.19 618.576 520.333 618.4C520.476 618.224 520.67 618.125 520.872 618.125H667.238C667.44 618.125 667.634 618.224 667.777 618.4C667.92 618.576 668 618.814 668 619.063C668 619.311 667.92 619.55 667.777 619.725C667.634 619.901 667.44 620 667.238 620Z" fill="#CCCCCC"/>
<path d="M460.484 123.642C459.875 122.425 459.071 121.374 458.121 120.552C457.171 119.73 456.095 119.155 454.958 118.861C454.541 118.754 454.118 118.688 453.692 118.665L395.611 54.8156C394.47 53.3738 392.948 52.4798 391.319 52.2942C390.998 52.2488 390.674 52.2363 390.351 52.2567C389.011 52.3316 387.718 52.8849 386.629 53.8491C385.541 54.8133 384.705 56.1465 384.223 57.6857C383.741 59.225 383.634 60.9035 383.915 62.5162C384.197 64.1288 384.854 65.6057 385.808 66.7662L408.044 90.6018L444.559 129.734C444.589 130.471 444.679 131.203 444.826 131.918C445.263 133.99 446.202 135.85 447.519 137.251C448.835 138.653 450.467 139.529 452.198 139.763C453.776 139.99 455.375 139.665 456.81 138.826C457.948 138.172 458.957 137.222 459.768 136.042C459.852 135.92 459.928 135.808 460.004 135.677C461.07 133.969 461.687 131.902 461.773 129.751C461.859 127.601 461.409 125.47 460.484 123.642H460.484Z" fill="#FFB8B8"/>
<path d="M361.139 185.176L360.598 158.125L360.14 135.677L359.828 119.967L359.21 89.3458C359.088 87.7063 358.58 86.146 357.749 84.8554C356.918 83.5647 355.799 82.5996 354.529 82.0778C353.259 81.5559 351.893 81.5 350.597 81.9168C349.302 82.3337 348.133 83.2052 347.234 84.425C347.022 84.7037 346.831 85.0048 346.662 85.3248C345.724 86.9775 345.302 88.9909 345.473 90.9955L346.83 135.677L347.509 158.125L348.377 186.76C348.127 187.18 347.9 187.622 347.699 188.081C347.157 189.345 346.83 190.731 346.736 192.156C346.643 193.58 346.787 195.013 347.158 196.367C347.545 197.787 348.173 199.09 348.999 200.19C349.826 201.291 350.833 202.163 351.953 202.75C353.074 203.337 354.283 203.626 355.501 203.597C356.719 203.568 357.918 203.222 359.019 202.581C360.299 201.838 361.409 200.718 362.253 199.322C363.096 197.925 363.647 196.294 363.857 194.574C364.066 192.853 363.928 191.096 363.454 189.457C362.98 187.818 362.185 186.347 361.139 185.176H361.139Z" fill="#FFB8B8"/>
<path d="M413.434 108.551L408.044 90.6018L399.323 61.5267C398.694 59.4112 397.686 57.4971 396.373 55.9264C395.059 54.3557 393.475 53.1688 391.738 52.4536C391.601 52.3974 391.456 52.3411 391.319 52.2942C389.636 51.6662 387.863 51.4935 386.121 51.788C384.378 52.0824 382.709 52.8371 381.226 54.0001L351.854 76.9078C349.164 79.0009 347.241 82.2977 346.491 86.1018C345.742 89.9058 346.224 93.9192 347.836 97.2941C351.509 105.104 355.512 112.672 359.828 119.967C363.251 125.694 369.623 126.304 370.729 135.677H392.386L414.311 111.475L413.434 108.551Z" fill="#CCCCCC"/>
<path d="M77.1199 327.919C86.8756 327.919 94.7841 318.195 94.7841 306.2C94.7841 294.205 86.8756 284.481 77.1199 284.481C67.3642 284.481 59.4557 294.205 59.4557 306.2C59.4557 318.195 67.3642 327.919 77.1199 327.919Z" fill="#A0616A"/>
<path d="M120.486 291.25C120.66 291.42 120.829 291.601 120.992 291.792C121.803 292.732 122.444 293.872 122.872 295.137C123.3 296.403 123.506 297.765 123.476 299.136C123.446 300.506 123.181 301.853 122.698 303.088C122.215 304.324 121.525 305.42 120.674 306.305C120.476 306.509 120.268 306.701 120.054 306.879L121.249 356.505C121.283 358.129 120.89 359.724 120.129 361.052C119.367 362.381 118.278 363.372 117.022 363.879L116.949 363.898L84.178 368.189C83.2871 368.305 82.3862 368.204 81.5273 367.89C80.6685 367.576 79.8688 367.056 79.1744 366.36C78.4799 365.663 77.9045 364.805 77.4813 363.834C77.0582 362.863 76.7957 361.799 76.709 360.702C76.6223 359.606 76.7131 358.499 76.9762 357.446C77.2393 356.393 77.6694 355.414 78.2418 354.567C78.8142 353.719 79.5175 353.019 80.311 352.508C81.1045 351.996 81.9727 351.683 82.8652 351.587L106.226 349.057L110.266 306.081C110.002 305.793 109.754 305.483 109.525 305.153C108.259 303.309 107.594 300.953 107.661 298.541C107.728 296.13 108.522 293.835 109.888 292.102C111.254 290.369 113.095 289.322 115.053 289.165C117.012 289.008 118.948 289.751 120.486 291.25H120.486Z" fill="#A0616A"/>
<path d="M106.213 608.472H115.03L119.225 566.656H106.211L106.213 608.472Z" fill="#A0616A"/>
<path d="M103.964 604.933L121.328 604.932H121.329C122.782 604.932 124.221 605.284 125.563 605.968C126.906 606.651 128.126 607.654 129.154 608.917C130.181 610.18 130.996 611.68 131.552 613.331C132.108 614.982 132.395 616.751 132.395 618.538V618.98L103.964 618.981L103.964 604.933Z" fill="#2F2E41"/>
<path d="M18.5747 593.483L26.1507 599.029L47.1549 565.739L35.9732 557.553L18.5747 593.483Z" fill="#A0616A"/>
<path d="M18.115 589.027L33.0348 599.95L33.0354 599.95C34.2841 600.864 35.374 602.072 36.2431 603.504C37.1121 604.936 37.7433 606.564 38.1005 608.296C38.4577 610.028 38.5339 611.83 38.3248 613.598C38.1157 615.366 37.6255 617.066 36.882 618.601L36.698 618.981L12.2698 601.098L18.115 589.027Z" fill="#2F2E41"/>
<path d="M117.111 593.703H107.237C106.438 593.704 105.666 593.342 105.072 592.684C104.477 592.027 104.102 591.122 104.019 590.144L94.0655 475.102C94.0403 474.813 93.9384 474.541 93.7754 474.33C93.6124 474.119 93.3974 473.979 93.1636 473.933C92.9297 473.887 92.69 473.937 92.4814 474.074C92.2728 474.212 92.1069 474.431 92.0094 474.696L74.0526 523.585L42.2611 587.324C41.8496 588.141 41.2126 588.748 40.4665 589.035C39.7205 589.322 38.9155 589.269 38.1988 588.885L25.4983 582.015C25.0784 581.787 24.7025 581.453 24.3957 581.033C24.0889 580.614 23.8581 580.119 23.7186 579.582C23.5792 579.044 23.5342 578.476 23.5867 577.916C23.6393 577.355 23.7881 576.815 24.0234 576.331L53.2485 516.163L62.2116 465.469C59.3926 443.485 71.4776 410.8 71.6002 410.472L71.6601 410.312L104.949 394.315L105.116 394.566C118.244 447.536 126.243 504.542 120.337 590.057C120.264 591.049 119.893 591.972 119.297 592.646C118.7 593.32 117.921 593.697 117.111 593.703Z" fill="#2F2E41"/>
<path d="M70.3189 415.669L70.1639 415.268C70.0898 415.076 62.6878 395.881 56.9819 375.366C55.8852 371.399 55.4707 367.194 55.7645 363.02C56.0582 358.845 57.0539 354.791 58.6884 351.115C60.3441 347.4 62.6093 344.148 65.3404 341.566C68.0716 338.984 71.2091 337.127 74.5543 336.114C80.3616 334.402 86.4757 335.313 91.7828 338.68C97.0898 342.047 101.236 347.645 103.467 354.456C107.993 368.373 106.551 383.227 105.193 394.908L105.166 395.142L104.993 395.244L70.3189 415.669Z" fill="#3F3D56"/>
<path d="M98.5373 293.932H70.4886V278.899C76.6449 275.892 82.6693 273.334 86.3109 278.899C89.5535 278.899 92.6633 280.483 94.9562 283.302C97.2491 286.121 98.5372 289.945 98.5373 293.932V293.932Z" fill="#2F2E41"/>
<path d="M68.9357 276.246C52.1676 276.246 47.4742 302.089 47.4742 316.668C47.4742 324.798 50.4648 327.706 55.1642 328.69L56.8238 317.807L60.7109 329.159C62.0309 329.167 63.4177 329.135 64.8554 329.102L66.1734 325.766L69.1123 329.043C80.8832 329.064 90.3968 331.174 90.3968 316.668C90.3968 302.089 86.2807 276.246 68.9357 276.246Z" fill="#2F2E41"/>
<path d="M147.128 620H0.762317C0.560137 620 0.366237 619.901 0.223274 619.725C0.0803113 619.55 -3.8147e-06 619.311 -3.8147e-06 619.063C-3.8147e-06 618.814 0.0803113 618.576 0.223274 618.4C0.366237 618.224 0.560137 618.125 0.762317 618.125H147.128C147.33 618.125 147.524 618.224 147.667 618.4C147.81 618.576 147.89 618.814 147.89 619.063C147.89 619.311 147.81 619.55 147.667 619.725C147.524 619.901 147.33 620 147.128 620Z" fill="#CCCCCC"/>
<path d="M149.88 311.628H117.1C115.18 311.625 113.339 310.686 111.982 309.017C110.624 307.347 109.86 305.084 109.858 302.723V262.419C109.86 260.058 110.624 257.795 111.982 256.126C113.339 254.456 115.18 253.517 117.1 253.515H149.88C151.8 253.517 153.641 254.456 154.999 256.126C156.356 257.795 157.12 260.058 157.122 262.419V302.723C157.12 305.084 156.356 307.347 154.999 309.017C153.641 310.686 151.8 311.625 149.88 311.628Z" fill="white"/>
<path d="M149.88 311.628H117.1C115.18 311.625 113.339 310.686 111.982 309.017C110.624 307.347 109.86 305.084 109.858 302.723V262.419C109.86 260.058 110.624 257.795 111.982 256.126C113.339 254.456 115.18 253.517 117.1 253.515H149.88C151.8 253.517 153.641 254.456 154.999 256.126C156.356 257.795 157.12 260.058 157.122 262.419V302.723C157.12 305.084 156.356 307.347 154.999 309.017C153.641 310.686 151.8 311.625 149.88 311.628ZM117.1 255.389C115.584 255.391 114.131 256.133 113.059 257.451C111.987 258.769 111.385 260.555 111.383 262.419V302.723C111.385 304.587 111.987 306.374 113.059 307.692C114.131 309.01 115.584 309.751 117.1 309.753H149.88C151.396 309.751 152.849 309.01 153.921 307.692C154.993 306.374 155.596 304.587 155.597 302.723V262.419C155.596 260.555 154.993 258.769 153.921 257.451C152.849 256.133 151.396 255.391 149.88 255.389H117.1Z" fill="#3F3D56"/>
<path d="M144.163 295.225H122.818C122.211 295.224 121.63 294.927 121.201 294.4C120.773 293.873 120.531 293.158 120.531 292.413V272.729C120.531 271.984 120.773 271.269 121.201 270.742C121.63 270.215 122.211 269.918 122.818 269.918H128.827C129.217 269.916 129.602 270.038 129.943 270.272C130.284 270.507 130.571 270.845 130.774 271.255L132.45 274.604H144.163C144.769 274.605 145.35 274.901 145.779 275.429C146.208 275.956 146.449 276.67 146.45 277.416V292.413C146.449 293.158 146.208 293.873 145.779 294.4C145.35 294.927 144.769 295.224 144.163 295.225Z" fill="#525252"/>
<path d="M143.468 305.169C143.575 305.409 143.674 305.656 143.764 305.909C144.215 307.163 144.446 308.519 144.441 309.89C144.436 311.261 144.196 312.615 143.736 313.863C143.276 315.112 142.606 316.227 141.771 317.135C140.936 318.043 139.955 318.724 138.891 319.133C138.643 319.228 138.392 319.306 138.137 319.367L123.577 365.675C123.096 367.188 122.231 368.47 121.11 369.331C119.989 370.192 118.672 370.586 117.354 370.454L117.281 370.437L85.7238 358.756C84.8658 358.438 84.0675 357.915 83.3749 357.216C82.6824 356.517 82.1094 355.656 81.6889 354.683C81.2685 353.71 81.009 352.644 80.9255 351.547C80.8419 350.45 80.9359 349.344 81.202 348.292C81.4682 347.24 81.9012 346.263 82.4761 345.418C83.051 344.573 83.7564 343.877 84.5515 343.368C85.3466 342.86 86.2156 342.551 87.1085 342.458C88.0014 342.366 88.9003 342.491 89.7534 342.828L112.082 351.642L129.369 313.961C129.216 313.57 129.086 313.166 128.979 312.753C128.393 310.45 128.525 307.961 129.348 305.77C130.171 303.58 131.626 301.843 133.432 300.898C135.238 299.953 137.265 299.866 139.12 300.656C140.974 301.445 142.524 303.053 143.468 305.169H143.468Z" fill="#A0616A"/>
</g>
<defs>
<clipPath id="clip0_4_29">
<rect width="668" height="620" fill="white"/>
</clipPath>
</defs>
</svg>
