<svg width="154" height="23" viewBox="0 0 154 23" fill="none" xmlns="http://www.w3.org/2000/svg">
<path d="M7.28 11.176C8.176 11.176 8.96533 11.0693 9.648 10.856C10.3413 10.632 10.9173 10.3227 11.376 9.928C11.8453 9.52267 12.1973 9.04267 12.432 8.488C12.6667 7.93333 12.784 7.32 12.784 6.648C12.784 5.28267 12.336 4.25333 11.44 3.56C10.544 2.86667 9.2 2.52 7.408 2.52H4.016V11.176H7.28ZM17.872 23H15.12C14.5547 23 14.1387 22.7813 13.872 22.344L7.92 14.152C7.73867 13.896 7.54133 13.7147 7.328 13.608C7.12533 13.4907 6.80533 13.432 6.368 13.432H4.016V23H0.928V0.0719986H7.408C8.85867 0.0719986 10.112 0.221332 11.168 0.519999C12.224 0.807999 13.0933 1.22933 13.776 1.784C14.4693 2.33867 14.9813 3.01067 15.312 3.8C15.6427 4.57867 15.808 5.45333 15.808 6.424C15.808 7.23467 15.68 7.992 15.424 8.696C15.168 9.4 14.7947 10.0347 14.304 10.6C13.824 11.1547 13.232 11.6293 12.528 12.024C11.8347 12.4187 11.0453 12.7173 10.16 12.92C10.5547 13.144 10.896 13.4693 11.184 13.896L17.872 23ZM35.1345 20.472L35.1185 23H20.9905V0.0719986H35.1185V2.6H24.0945V10.216H33.0225V12.648H24.0945V20.472H35.1345ZM100.13 1.224C100.13 1.576 100.024 1.91733 99.8103 2.248L86.8343 20.472H99.9383V23H82.7543V21.784C82.7543 21.6133 82.7809 21.4533 82.8343 21.304C82.8983 21.1547 82.9729 21.0107 83.0583 20.872L96.0663 2.6H83.3623V0.0719986H100.13V1.224ZM119.38 1.224C119.38 1.576 119.274 1.91733 119.06 2.248L106.084 20.472H119.188V23H102.004V21.784C102.004 21.6133 102.031 21.4533 102.084 21.304C102.148 21.1547 102.223 21.0107 102.308 20.872L115.316 2.6H102.612V0.0719986H119.38V1.224ZM136.342 20.392V23H123.334V0.0719986H126.422V20.392H136.342ZM153.916 20.472L153.9 23H139.772V0.0719986H153.9V2.6H142.876V10.216H151.804V12.648H142.876V20.472H153.916Z" fill="#FEFEFE"/>
<path d="M59.3313 11.544C59.3313 13.2613 59.0593 14.824 58.5153 16.232C57.9713 17.64 57.2033 18.8453 56.2113 19.848C55.2193 20.8507 54.0246 21.6293 52.6273 22.184C51.2406 22.728 49.7046 23 48.0193 23H39.4593V0.0719986H48.0193C49.7046 0.0719986 51.2406 0.349332 52.6273 0.903999C54.0246 1.448 55.2193 2.22667 56.2113 3.24C57.2033 4.24267 57.9713 5.448 58.5153 6.856C59.0593 8.264 59.3313 9.82667 59.3313 11.544ZM56.1473 11.544C56.1473 10.136 55.9553 8.87733 55.5713 7.768C55.1873 6.65867 54.6433 5.72 53.9393 4.952C53.2353 4.184 52.3819 3.59733 51.3793 3.192C50.3766 2.78667 49.2566 2.584 48.0193 2.584H42.5633V20.488H48.0193C49.2566 20.488 50.3766 20.2853 51.3793 19.88C52.3819 19.4747 53.2353 18.8933 53.9393 18.136C54.6433 17.368 55.1873 16.4293 55.5713 15.32C55.9553 14.2107 56.1473 12.952 56.1473 11.544ZM75.354 14.488L71.754 5.16C71.6473 4.88267 71.5353 4.56267 71.418 4.2C71.3007 3.82667 71.1887 3.432 71.082 3.016C70.858 3.88 70.6287 4.6 70.394 5.176L66.794 14.488H75.354ZM81.818 23H79.418C79.1407 23 78.9167 22.9307 78.746 22.792C78.5753 22.6533 78.4473 22.4773 78.362 22.264L76.218 16.728H65.93L63.786 22.264C63.722 22.456 63.5993 22.6267 63.418 22.776C63.2367 22.9253 63.0127 23 62.746 23H60.346L69.514 0.0719986H72.65L81.818 23Z" fill="#C42625"/>
</svg>
